<svg id="Layer_1" data-name="Layer 1" xmlns="http://www.w3.org/2000/svg" viewBox="0 0 250 87.71"><defs><style>.cls-1{fill:#131521;}.cls-2{fill:#faa21d;}.cls-3{fill:#fff;stroke:#141622;stroke-miterlimit:10;}</style></defs><path class="cls-1" d="M106.7,130.85c-1.48,6.21-7.31,10-13.34,11.17a34.78,34.78,0,0,1-14.56-.74C65.8,138.22,54,131,44.54,121.51c-6.33-6.34-12-15.24-13.43-24.2A14.8,14.8,0,0,1,37,82.7a15,15,0,0,1,8.11-3.13c1.35,0,7.58,0,3.9,1.54a30.1,30.1,0,0,0-7,3.67c-3.76,3-5.23,7.9-4.79,12.61.55,5.78,3.65,11,7.27,15.54a66.66,66.66,0,0,0,27.46,20.26,40.49,40.49,0,0,0,14.76,3.16c5.37,0,12.3-1.5,15.18-6.46Z" transform="translate(-30.9 -54.78)"/><path class="cls-1" d="M103.78,123.24c.15-4.86-1.6-9.46-4.06-13.6a47.41,47.41,0,0,0-7.79-10.08,12.84,12.84,0,0,1-1.1-1.34l.41-.4c.05,0,4.3,4.18,4.66,4.56a47,47,0,0,1,4.13,5.08,47.48,47.48,0,0,1,6,11.6,12,12,0,0,1,1,4.87Z" transform="translate(-30.9 -54.78)"/><path class="cls-2" d="M116,71.52a166.14,166.14,0,0,0-46,55.44c-.45-.84-.72-1.31-1-1.79-1.4-2.7-2.76-5.42-4.21-8.1a62.17,62.17,0,0,0-3.49-6,39.2,39.2,0,0,1-2.2-3.89c-1.95-3.61-4.49-6.81-6.69-10.25a41.26,41.26,0,0,0-3.22-3.84c6.9,2.14,15.32,8.59,20.28,18.76a5,5,0,0,0,.65-.66c1.13-1.57,2.13-3.24,3.38-4.71,2.41-2.83,4.84-5.65,7.23-8.49a77.94,77.94,0,0,1,8-8.3,129.14,129.14,0,0,1,12-9.58,132.41,132.41,0,0,1,13.68-8.17A11,11,0,0,1,116,71.52Z" transform="translate(-30.9 -54.78)"/><path class="cls-2" d="M75.31,119.92c.29-.32,4.82.52,5.35.57l5.89.56A77.54,77.54,0,0,1,98,122.9a127.59,127.59,0,0,1,14.68,4.32,130.8,130.8,0,0,1,14.53,6.55,9.68,9.68,0,0,1,1.22,1A166.35,166.35,0,0,0,71,127.46a29,29,0,0,0,1.43-2.85A22.2,22.2,0,0,1,75.31,119.92Z" transform="translate(-30.9 -54.78)"/><path class="cls-3" d="M69.93,106.54l-3.39-4.8V63.3h8.88V99.72Z" transform="translate(-30.9 -54.78)"/><path class="cls-3" d="M79.87,55.28h8.35V86.57a54.5,54.5,0,0,1-4.2,4c-1.5,1.18-2.42,2.91-4.15,4Z" transform="translate(-30.9 -54.78)"/><path class="cls-3" d="M53.81,72.32h8.32v25c-2.1-1.76-5.45-4.47-8.32-5.47Z" transform="translate(-30.9 -54.78)"/><path d="M115.41,71.69l.37-.44.17.17-.43.37Z" transform="translate(-30.9 -54.78)"/><path class="cls-1" d="M133.25,117c-3.43-4.78-6.54-9.59-11.37-13.08v13H114.3V85h7.48V96.29A23.38,23.38,0,0,0,126.21,92a4.45,4.45,0,0,1,.43-.61c2-2.16,4-4.31,6.06-6.48h8.7c-4.28,5.07-8.68,9.87-13.32,14.63,1.72,1.94,3.69,3.6,5.38,5.51s3.18,3.82,4.65,5.82,2.7,4,4.11,6.12Z" transform="translate(-30.9 -54.78)"/><path class="cls-1" d="M173.92,99.8A65.13,65.13,0,0,1,188,116.87c-.1.07-.2.21-.3.21h-8.3A67.42,67.42,0,0,0,168.11,104v13h-7.54V85H168V96.74c.72-.94,1.41-1.31,1.73-2.15.22-.56.91-.94,1.36-1.42,1.79-1.91,3.59-3.8,5.34-5.74.73-.81,1.36-1.71,2-2.49h9.32c-.58.58-1,1-1.45,1.45-1.6,1.72-3.33,3.34-4.75,5.21-.95,1.26-2.09,2.3-3.14,3.44C176.94,96.62,175.45,98.17,173.92,99.8Z" transform="translate(-30.9 -54.78)"/><path class="cls-1" d="M272.74,107.86c.88-3.46.48-6.94.53-10.39s0-7,0-10.52v-2h7.57v1.7c0,5.37-.07,10.73,0,16.1a35.51,35.51,0,0,1-.52,5.58,8.51,8.51,0,0,1-2.72,5.42c-1.1,1-2,2.19-3.47,2.68a30.76,30.76,0,0,1-4.34,1.07c-.69,0-1.44-.22-2,.38-.07.07-.27,0-.39,0-2.18-.55-4.49-.44-6.57-1.46a10.89,10.89,0,0,1-3.73-2.92c-.38-.46-.84-.85-1.23-1.24-.16-.44-.29-.85-.46-1.25a11.33,11.33,0,0,1-.87-3.21c-.84-7.41-.22-14.86-.41-22.28a4.48,4.48,0,0,1,.07-.59h7.5v19.63a9.21,9.21,0,0,0,1.55,4.73,4.69,4.69,0,0,0,3,1.83C269.1,111.32,271.44,110.51,272.74,107.86Z" transform="translate(-30.9 -54.78)"/><path class="cls-1" d="M232.61,106.42V117h-7.47V85.26c1.65.29,3.16-.66,4.8-.37,2.16-.77,4.43-.51,6.6-.33a20.1,20.1,0,0,1,8,1.88c3,1.62,3.72,2.45,4.83,5.55a11.31,11.31,0,0,1-.12,7.15c-.73,2.08-1.67,3.68-2.82,4.39a17.72,17.72,0,0,1-4.33,2c-.94.26-1.95.18-2.82.43C237.11,106.65,235,106.14,232.61,106.42Zm0-6.53c2.33.42,4.42-.22,6.81-.36l2.1-1.86c.24-1,.72-1.85.48-2.27-.4-.71-.05-1.41-.34-2.05l-1.85-1.84-3.62-.26c-.2,0-.47.09-.58,0-1.06-.88-2-.26-3,.17Z" transform="translate(-30.9 -54.78)"/><path class="cls-1" d="M188.55,117c.77-2.21,1.51-4.4,2.31-6.57s1.76-4.31,2.5-6.5,1.78-4.18,2.56-6.3,1.85-4.26,2.7-6.43,1.93-4.24,2.87-6.29h7c2.32,5.33,4.73,10.55,6.8,15.92s4.09,10.72,6.16,16.17h-8.43c-1-3-2.09-6.14-3.16-9.26-.7-2-1.37-4.07-2.11-6.08-.89-2.41-1.85-4.8-2.86-7.39a12.07,12.07,0,0,0-.78,1.32c-.63,1.59-1.22,3.2-1.82,4.8-.54,1.44-1.11,2.86-1.59,4.31s-.91,2.79-1.48,4.16c-.86,2.09-1.43,4.31-2.12,6.47l-.54,1.67Z" transform="translate(-30.9 -54.78)"/><path class="cls-1" d="M153.28,85V117h-7.35c-.29-1.67-.39-25.45-.13-32.06Z" transform="translate(-30.9 -54.78)"/><path class="cls-2" d="M126.43,128.82v-2.41a.3.3,0,0,0,0-.15l-2.8-3.86h.71l2.48,3.47c.33-.48,1.71-2.36,2.55-3.47H130l-2.92,3.9a.23.23,0,0,0,0,.14v2.38Z" transform="translate(-30.9 -54.78)"/><path class="cls-2" d="M137.43,125.56a3.53,3.53,0,1,1-3.48-3.25A3.19,3.19,0,0,1,137.43,125.56Zm-6.39,0a2.75,2.75,0,0,0,2.87,2.87,2.84,2.84,0,1,0-2.87-2.87Z" transform="translate(-30.9 -54.78)"/><path class="cls-2" d="M139.79,122.4v3.89a2,2,0,0,0,2.28,2.14c1.31,0,2.28-.44,2.28-2.14V122.4H145v3.86c0,2-1.3,2.63-2.92,2.63s-2.89-.68-2.89-2.55V122.4Z" transform="translate(-30.9 -54.78)"/><path class="cls-2" d="M147.77,125.82v3h-.61V122.4H150c1.55,0,2.36.68,2.36,1.69a1.55,1.55,0,0,1-1.46,1.5,1.5,1.5,0,0,1,1.34,1.68v.25a3.43,3.43,0,0,0,.1,1.3h-.62a3.66,3.66,0,0,1-.11-1.34v-.16c0-1.06-.38-1.5-1.88-1.5Zm0-.46h1.89c1.38,0,2-.42,2-1.26s-.62-1.24-1.84-1.24h-2.06Z" transform="translate(-30.9 -54.78)"/><path class="cls-2" d="M157.09,122.4h4.73v.46h-4.13v2.42h3.88v.46h-3.88v3.08h-.6Z" transform="translate(-30.9 -54.78)"/><path class="cls-2" d="M163.82,122.4v6.42h-.61V122.4Z" transform="translate(-30.9 -54.78)"/><path class="cls-2" d="M166.12,128.82V122.4H167c1.22,1.54,4.08,5.13,4.57,5.82h0c-.07-.92-.06-1.87-.06-2.91V122.4h.61v6.42h-.82c-1.17-1.49-4.07-5.22-4.63-5.92h0c.05.84,0,1.77,0,2.94v3Z" transform="translate(-30.9 -54.78)"/><path class="cls-2" d="M175.18,126.6l-1,2.22h-.61l2.87-6.42h.71l3,6.42h-.66l-1-2.22Zm3.1-.46c-.87-1.91-1.32-2.82-1.47-3.25h0c-.19.48-.69,1.62-1.39,3.25Z" transform="translate(-30.9 -54.78)"/><path class="cls-2" d="M181.55,128.82V122.4h.89c1.22,1.54,4.08,5.13,4.57,5.82h0c-.06-.92-.05-1.87-.05-2.91V122.4h.61v6.42h-.82c-1.17-1.49-4.07-5.22-4.63-5.92h0c0,.84,0,1.77,0,2.94v3Z" transform="translate(-30.9 -54.78)"/><path class="cls-2" d="M195.68,127.11a2.83,2.83,0,0,1-2.94,1.78,3.15,3.15,0,0,1-3.43-3.27,3.21,3.21,0,0,1,3.44-3.31c1.69,0,2.68.77,2.94,1.84h-.61a2.25,2.25,0,0,0-2.37-1.38,2.83,2.83,0,0,0,0,5.66,2.31,2.31,0,0,0,2.31-1.32Z" transform="translate(-30.9 -54.78)"/><path class="cls-2" d="M198,122.4v6.42h-.6V122.4Z" transform="translate(-30.9 -54.78)"/><path class="cls-2" d="M201,126.6l-1,2.22h-.61l2.87-6.42H203l3,6.42h-.66l-1-2.22Zm3.09-.46c-.87-1.91-1.31-2.82-1.47-3.25h0c-.19.48-.69,1.62-1.4,3.25Z" transform="translate(-30.9 -54.78)"/><path class="cls-2" d="M207.36,122.4h.6v6h4.21l-.12.46h-4.69Z" transform="translate(-30.9 -54.78)"/><path class="cls-2" d="M217.15,126.6l-1,2.22h-.62l2.88-6.42h.71l3,6.42h-.66l-1-2.22Zm3.1-.46c-.87-1.91-1.32-2.82-1.48-3.25h0c-.19.48-.69,1.62-1.39,3.25Z" transform="translate(-30.9 -54.78)"/><path class="cls-2" d="M223.63,127.1c.23.85.92,1.35,2.21,1.35s2-.58,2-1.28-.39-1.17-2.11-1.52-2.37-.78-2.37-1.71.74-1.63,2.42-1.63,2.45.86,2.55,1.64h-.63c-.17-.69-.72-1.18-2-1.18s-1.75.43-1.75,1.14.52,1,2,1.28c2.2.45,2.53,1.17,2.53,1.94,0,1-.84,1.76-2.65,1.76s-2.67-.93-2.82-1.79Z" transform="translate(-30.9 -54.78)"/><path class="cls-2" d="M230.24,127.1c.24.85.93,1.35,2.22,1.35s2-.58,2-1.28-.39-1.17-2.12-1.52-2.37-.78-2.37-1.71.75-1.63,2.43-1.63,2.45.86,2.55,1.64h-.63c-.18-.69-.72-1.18-2-1.18s-1.75.43-1.75,1.14.52,1,2,1.28c2.2.45,2.52,1.17,2.52,1.94,0,1-.83,1.76-2.64,1.76-2,0-2.68-.93-2.82-1.79Z" transform="translate(-30.9 -54.78)"/><path class="cls-2" d="M237.4,122.4v6.42h-.6V122.4Z" transform="translate(-30.9 -54.78)"/><path class="cls-2" d="M239.65,127.1c.23.85.92,1.35,2.21,1.35s2-.58,2-1.28-.39-1.17-2.11-1.52-2.37-.78-2.37-1.71.75-1.63,2.42-1.63,2.45.86,2.55,1.64h-.63c-.17-.69-.72-1.18-1.95-1.18s-1.75.43-1.75,1.14.52,1,2,1.28c2.2.45,2.53,1.17,2.53,1.94,0,1-.84,1.76-2.65,1.76-2,0-2.67-.93-2.82-1.79Z" transform="translate(-30.9 -54.78)"/><path class="cls-2" d="M247.75,122.86h-2.62v-.46H251v.46h-2.63v6h-.62Z" transform="translate(-30.9 -54.78)"/><path class="cls-2" d="M252.09,126.6l-1,2.22h-.61l2.87-6.42h.72l3,6.42h-.66l-1-2.22Zm3.1-.46c-.88-1.91-1.32-2.82-1.48-3.25h0c-.19.48-.69,1.62-1.4,3.25Z" transform="translate(-30.9 -54.78)"/><path class="cls-2" d="M258.45,128.82V122.4h.9c1.21,1.54,4.08,5.13,4.57,5.82h0c-.07-.92-.06-1.87-.06-2.91V122.4h.62v6.42h-.83c-1.16-1.49-4.07-5.22-4.63-5.92h0c.06.84.05,1.77.05,2.94v3Z" transform="translate(-30.9 -54.78)"/><path class="cls-2" d="M268.36,122.86h-2.63v-.46h5.88v.46H269v6h-.61Z" transform="translate(-30.9 -54.78)"/></svg>